{
  "accessors": [
    {
      "bufferView": 2,
      "componentType": 5126,
      "count": 65532,
      "max": [
        28.090564727783203,
        15.28785228729248,
        15.513584136962891
      ],
      "min": [
        0.55110931396484375,
        2.2409882545471191,
        2.4402260780334473
      ],
      "type": "VEC3"
    },
    {
      "bufferView": 2,
      "byteOffset": 786384,
      "componentType": 5126,
      "count": 65532,
      "max": [
        0.99999213218688965,
        0.99997222423553467,
        0.99999606609344482
      ],
      "min": [
        -0.99999183416366577,
        -0.9999966025352478,
        -0.99999815225601196
      ],
      "type": "VEC3"
    },
    {
      "bufferView": 1,
      "componentType": 5126,
      "count": 65532,
      "max": [
        0.98851597309112549,
        0.99977201223373413
      ],
      "min": [
        0.0024049999192357063,
        0.0077559999190270901
      ],
      "type": "VEC2"
    },
    {
      "bufferView": 3,
      "componentType": 5126,
      "count": 65532,
      "max": [
        0.99998700618743896,
        0.9999198317527771,
        0.99995625019073486,
        1
      ],
      "min": [
        -0.99979317188262939,
        -0.99998456239700317,
        -0.99992173910140991,
        -1
      ],
      "type": "VEC4"
    },
    {
      "bufferView": 0,
      "componentType": 5125,
      "count": 311181,
      "max": [
        65531
      ],
      "min": [
        0
      ],
      "type": "SCALAR"
    },
    {
      "bufferView": 2,
      "byteOffset": 1572768,
      "componentType": 5126,
      "count": 65532,
      "max": [
        27.750219345092773,
        12.949958801269531,
        15.115413665771484
      ],
      "min": [
        0.50007915496826172,
        3.6387042999267578,
        4.6400747299194336
      ],
      "type": "VEC3"
    },
    {
      "bufferView": 2,
      "byteOffset": 2359152,
      "componentType": 5126,
      "count": 65532,
      "max": [
        0.99998575448989868,
        0.99973088502883911,
        0.99993759393692017
      ],
      "min": [
        -0.99994367361068726,
        -0.99996107816696167,
        -0.99994450807571411
      ],
      "type": "VEC3"
    },
    {
      "bufferView": 1,
      "byteOffset": 524256,
      "componentType": 5126,
      "count": 65532,
      "max": [
        0.99145400524139404,
        0.99978399276733398
      ],
      "min": [
        0.0022090000566095114,
        0.0037489999085664749
      ],
      "type": "VEC2"
    },
    {
      "bufferView": 3,
      "byteOffset": 1048512,
      "componentType": 5126,
      "count": 65532,
      "max": [
        0.99998629093170166,
        0.99998611211776733,
        0.99999743700027466,
        1
      ],
      "min": [
        -0.99999624490737915,
        -0.99999648332595825,
        -0.9999086856842041,
        -1
      ],
      "type": "VEC4"
    },
    {
      "bufferView": 0,
      "byteOffset": 1244724,
      "componentType": 5125,
      "count": 321669,
      "max": [
        65531
      ],
      "min": [
        0
      ],
      "type": "SCALAR"
    },
    {
      "bufferView": 2,
      "byteOffset": 3145536,
      "componentType": 5126,
      "count": 65532,
      "max": [
        27.595382690429688,
        15.095857620239258,
        14.645696640014648
      ],
      "min": [
        0.0075321197509765625,
        4.1055221557617188,
        2.3788251876831055
      ],
      "type": "VEC3"
    },
    {
      "bufferView": 2,
      "byteOffset": 3931920,
      "componentType": 5126,
      "count": 65532,
      "max": [
        0.99951684474945068,
        0.9953342080116272,
        0.99993538856506348
      ],
      "min": [
        -0.999980628490448,
        -0.99997204542160034,
        -0.99998247623443604
      ],
      "type": "VEC3"
    },
    {
      "bufferView": 1,
      "byteOffset": 1048512,
      "componentType": 5126,
      "count": 65532,
      "max": [
        0.99394500255584717,
        0.99979901313781738
      ],
      "min": [
        0.0019020000472664833,
        0.0036289999261498451
      ],
      "type": "VEC2"
    },
    {
      "bufferView": 3,
      "byteOffset": 2097024,
      "componentType": 5126,
      "count": 65532,
      "max": [
        0.99999040365219116,
        0.99998503923416138,
        0.99997043609619141,
        1
      ],
      "min": [
        -0.9999992847442627,
        -0.99996769428253174,
        -0.999969482421875,
        -1
      ],
      "type": "VEC4"
    },
    {
      "bufferView": 0,
      "byteOffset": 2531400,
      "componentType": 5125,
      "count": 308061,
      "max": [
        65531
      ],
      "min": [
        0
      ],
      "type": "SCALAR"
    },
    {
      "bufferView": 2,
      "byteOffset": 4718304,
      "componentType": 5126,
      "count": 65532,
      "max": [
        27.414726257324219,
        14.916065216064453,
        13.834295272827148
      ],
      "min": [
        0.047535896301269531,
        5.7604842185974121,
        1.5105481147766113
      ],
      "type": "VEC3"
    },
    {
      "bufferView": 2,
      "byteOffset": 5504688,
      "componentType": 5126,
      "count": 65532,
      "max": [
        0.99999994039535522,
        0.98982071876525879,
        0.99805372953414917
      ],
      "min": [
        -0.99999648332595825,
        -0.99988853931427002,
        -0.99998700618743896
      ],
      "type": "VEC3"
    },
    {
      "bufferView": 1,
      "byteOffset": 1572768,
      "componentType": 5126,
      "count": 65532,
      "max": [
        0.98426401615142822,
        0.99951398372650146
      ],
      "min": [
        0.001791000016964972,
        0.0039249998517334461
      ],
      "type": "VEC2"
    },
    {
      "bufferView": 3,
      "byteOffset": 3145536,
      "componentType": 5126,
      "count": 65532,
      "max": [
        0.99999946355819702,
        0.99999737739562988,
        0.99993795156478882,
        1
      ],
      "min": [
        -0.99986416101455688,
        -0.9999883770942688,
        -0.999969482421875,
        -1
      ],
      "type": "VEC4"
    },
    {
      "bufferView": 0,
      "byteOffset": 3763644,
      "componentType": 5125,
      "count": 312696,
      "max": [
        65531
      ],
      "min": [
        0
      ],
      "type": "SCALAR"
    },
    {
      "bufferView": 2,
      "byteOffset": 6291072,
      "componentType": 5126,
      "count": 65532,
      "max": [
        26.432313919067383,
        14.842676162719727,
        12.476892471313477
      ],
      "min": [
        0.0010271072387695312,
        3.0889811515808105,
        2.7126312255859375
      ],
      "type": "VEC3"
    },
    {
      "bufferView": 2,
      "byteOffset": 7077456,
      "componentType": 5126,
      "count": 65532,
      "max": [
        0.99997973442077637,
        0.99930042028427124,
        0.99992841482162476
      ],
      "min": [
        -0.99999845027923584,
        -0.99999940395355225,
        -0.99997442960739136
      ],
      "type": "VEC3"
    },
    {
      "bufferView": 1,
      "byteOffset": 2097024,
      "componentType": 5126,
      "count": 65532,
      "max": [
        0.99874699115753174,
        0.99975299835205078
      ],
      "min": [
        0.0016680000117048621,
        0.0017259999876841903
      ],
      "type": "VEC2"
    },
    {
      "bufferView": 3,
      "byteOffset": 4194048,
      "componentType": 5126,
      "count": 65532,
      "max": [
        0.9999922513961792,
        0.99987339973449707,
        0.99998444318771362,
        1
      ],
      "min": [
        -0.9999854564666748,
        -0.99999648332595825,
        -0.99997401237487793,
        -1
      ],
      "type": "VEC4"
    },
    {
      "bufferView": 0,
      "byteOffset": 5014428,
      "componentType": 5125,
      "count": 315375,
      "max": [
        65531
      ],
      "min": [
        0
      ],
      "type": "SCALAR"
    },
    {
      "bufferView": 2,
      "byteOffset": 7863840,
      "componentType": 5126,
      "count": 65532,
      "max": [
        25.668621063232422,
        11.727563858032227,
        10.583370208740234
      ],
      "min": [
        3.7738933563232422,
        2.6485662460327148,
        1.5217132568359375
      ],
      "type": "VEC3"
    },
    {
      "bufferView": 2,
      "byteOffset": 8650224,
      "componentType": 5126,
      "count": 65532,
      "max": [
        0.9999963641166687,
        0.99971991777420044,
        0.99999511241912842
      ],
      "min": [
        -0.99999845027923584,
        -0.99998611211776733,
        -0.99987846612930298
      ],
      "type": "VEC3"
    },
    {
      "bufferView": 1,
      "byteOffset": 2621280,
      "componentType": 5126,
      "count": 65532,
      "max": [
        0.99349898099899292,
        0.99805200099945068
      ],
      "min": [
        0.003392999991774559,
        0.0040790000930428505
      ],
      "type": "VEC2"
    },
    {
      "bufferView": 3,
      "byteOffset": 5242560,
      "componentType": 5126,
      "count": 65532,
      "max": [
        0.9999966025352478,
        0.99999576807022095,
        0.9999852180480957,
        1
      ],
      "min": [
        -0.99999886751174927,
        -0.99993079900741577,
        -0.99971306324005127,
        -1
      ],
      "type": "VEC4"
    },
    {
      "bufferView": 0,
      "byteOffset": 6275928,
      "componentType": 5125,
      "count": 293136,
      "max": [
        65531
      ],
      "min": [
        0
      ],
      "type": "SCALAR"
    },
    {
      "bufferView": 2,
      "byteOffset": 9436608,
      "componentType": 5126,
      "count": 65532,
      "max": [
        25.610221862792969,
        9.0986452102661133,
        8.7199420928955078
      ],
      "min": [
        3.7738933563232422,
        1.4708113670349121,
        1.7887401580810547
      ],
      "type": "VEC3"
    },
    {
      "bufferView": 2,
      "byteOffset": 10222992,
      "componentType": 5126,
      "count": 65532,
      "max": [
        0.99999994039535522,
        0.99924319982528687,
        0.99999183416366577
      ],
      "min": [
        -0.9999956488609314,
        -0.99995964765548706,
        -0.99999994039535522
      ],
      "type": "VEC3"
    },
    {
      "bufferView": 1,
      "byteOffset": 3145536,
      "componentType": 5126,
      "count": 65532,
      "max": [
        0.99260598421096802,
        0.99782800674438477
      ],
      "min": [
        0.0023509999737143517,
        0.0038920000661164522
      ],
      "type": "VEC2"
    },
    {
      "bufferView": 3,
      "byteOffset": 6291072,
      "componentType": 5126,
      "count": 65532,
      "max": [
        0.99999809265136719,
        0.99998766183853149,
        0.99997973442077637,
        1
      ],
      "min": [
        -0.99998128414154053,
        -0.99999600648880005,
        -0.99971306324005127,
        -1
      ],
      "type": "VEC4"
    },
    {
      "bufferView": 0,
      "byteOffset": 7448472,
      "componentType": 5125,
      "count": 319794,
      "max": [
        65531
      ],
      "min": [
        0
      ],
      "type": "SCALAR"
    },
    {
      "bufferView": 2,
      "byteOffset": 11009376,
      "componentType": 5126,
      "count": 65532,
      "max": [
        25.545759201049805,
        8.1093597412109375,
        7.9072670936584473
      ],
      "min": [
        3.7746810913085938,
        2.0555191040039062,
        0.48813104629516602
      ],
      "type": "VEC3"
    },
    {
      "bufferView": 2,
      "byteOffset": 11795760,
      "componentType": 5126,
      "count": 65532,
      "max": [
        0.99998128414154053,
        0.99924319982528687,
        0.99998873472213745
      ],
      "min": [
        -0.99998044967651367,
        -0.99999737739562988,
        -0.99989485740661621
      ],
      "type": "VEC3"
    },
    {
      "bufferView": 1,
      "byteOffset": 3669792,
      "componentType": 5126,
      "count": 65532,
      "max": [
        0.98580199480056763,
        0.99848198890686035
      ],
      "min": [
        0.0019389999797567725,
        0.004029999952763319
      ],
      "type": "VEC2"
    },
    {
      "bufferView": 3,
      "byteOffset": 7339584,
      "componentType": 5126,
      "count": 65532,
      "max": [
        0.99998056888580322,
        0.99982094764709473,
        0.99998021125793457,
        1
      ],
      "min": [
        -0.99999737739562988,
        -0.99999964237213135,
        -0.99999451637268066,
        -1
      ],
      "type": "VEC4"
    },
    {
      "bufferView": 0,
      "byteOffset": 8727648,
      "componentType": 5125,
      "count": 311958,
      "max": [
        65531
      ],
      "min": [
        0
      ],
      "type": "SCALAR"
    },
    {
      "bufferView": 2,
      "byteOffset": 12582144,
      "componentType": 5126,
      "count": 65534,
      "max": [
        25.472078323364258,
        7.352452278137207,
        7.4259800910949707
      ],
      "min": [
        3.7726106643676758,
        1.0819649696350098,
        0.4444890022277832
      ],
      "type": "VEC3"
    },
    {
      "bufferView": 2,
      "byteOffset": 13368552,
      "componentType": 5126,
      "count": 65534,
      "max": [
        0.99999088048934937,
        0.98684471845626831,
        0.99980098009109497
      ],
      "min": [
        -0.999991774559021,
        -0.99998348951339722,
        -0.99998998641967773
      ],
      "type": "VEC3"
    },
    {
      "bufferView": 1,
      "byteOffset": 4194048,
      "componentType": 5126,
      "count": 65534,
      "max": [
        0.98549097776412964,
        0.9997289776802063
      ],
      "min": [
        0.0031799999997019768,
        0.011044999584555626
      ],
      "type": "VEC2"
    },
    {
      "bufferView": 3,
      "byteOffset": 8388096,
      "componentType": 5126,
      "count": 65534,
      "max": [
        0.99998968839645386,
        0.99985837936401367,
        0.99983668327331543,
        1
      ],
      "min": [
        -0.9999883770942688,
        -0.99999964237213135,
        -0.99999451637268066,
        -1
      ],
      "type": "VEC4"
    },
    {
      "bufferView": 0,
      "byteOffset": 9975480,
      "componentType": 5125,
      "count": 301338,
      "max": [
        65533
      ],
      "min": [
        0
      ],
      "type": "SCALAR"
    },
    {
      "bufferView": 2,
      "byteOffset": 14154960,
      "componentType": 5126,
      "count": 49974,
      "max": [
        28.086372375488281,
        14.796050071716309,
        15.07020378112793
      ],
      "min": [
        0,
        0,
        0
      ],
      "type": "VEC3"
    },
    {
      "bufferView": 2,
      "byteOffset": 14754648,
      "componentType": 5126,
      "count": 49974,
      "max": [
        0.9999924898147583,
        0.999336838722229,
        0.99941533803939819
      ],
      "min": [
        -0.99999463558197021,
        -0.99997448921203613,
        -0.99997943639755249
      ],
      "type": "VEC3"
    },
    {
      "bufferView": 1,
      "byteOffset": 4718320,
      "componentType": 5126,
      "count": 49974,
      "max": [
        0.98713701963424683,
        0.99858301877975464
      ],
      "min": [
        0.0038739999290555716,
        0.0038930000737309456
      ],
      "type": "VEC2"
    },
    {
      "bufferView": 3,
      "byteOffset": 9436640,
      "componentType": 5126,
      "count": 49974,
      "max": [
        0.99999833106994629,
        0.99953937530517578,
        0.99996894598007202,
        1
      ],
      "min": [
        -0.99997663497924805,
        -0.99999082088470459,
        -0.99984592199325562,
        -1
      ],
      "type": "VEC4"
    },
    {
      "bufferView": 0,
      "byteOffset": 11180832,
      "componentType": 5125,
      "count": 225888,
      "max": [
        49973
      ],
      "min": [
        0
      ],
      "type": "SCALAR"
    }
  ],
  "asset": {
    "generator": "Sketchfab (OSG glTF plugin)",
    "version": "2.0"
  },
  "bufferViews": [
    {
      "buffer": 0,
      "byteLength": 12084384,
      "byteOffset": 0,
      "name": "ScalarBufferView",
      "target": 34963
    },
    {
      "buffer": 0,
      "byteLength": 5118112,
      "byteOffset": 12084384,
      "byteStride": 8,
      "name": "Vec3BufferView",
      "target": 34962
    },
    {
      "buffer": 0,
      "byteLength": 15354336,
      "byteOffset": 17202496,
      "byteStride": 12,
      "name": "Vec4BufferView",
      "target": 34962
    },
    {
      "buffer": 0,
      "byteLength": 10236224,
      "byteOffset": 32556832,
      "byteStride": 16,
      "name": "MatrixBufferView",
      "target": 34962
    }
  ],
  "buffers": [
    {
      "byteLength": 42793056,
      "uri": "scene.bin"
    }
  ],
  "extensionsRequired": [
    "KHR_materials_pbrSpecularGlossiness"
  ],
  "extensionsUsed": [
    "KHR_materials_pbrSpecularGlossiness"
  ],
  "images": [
    {
      "uri": "textures/material_0_diffuse.jpeg"
    }
  ],
  "materials": [
    {
      "doubleSided": true,
      "emissiveFactor": [
        0,
        0,
        0
      ],
      "extensions": {
        "KHR_materials_pbrSpecularGlossiness": {
          "diffuseFactor": [
            1,
            1,
            1,
            1
          ],
          "diffuseTexture": {
            "index": 0,
            "texCoord": 0
          },
          "glossinessFactor": 0,
          "specularFactor": [
            0,
            0,
            0
          ]
        }
      },
      "name": "material_0",
      "occlusionFactor": 1
    }
  ],
  "meshes": [
    {
      "primitives": [
        {
          "attributes": {
            "NORMAL": 1,
            "POSITION": 0,
            "TANGENT": 3,
            "TEXCOORD_0": 2
          },
          "indices": 4,
          "material": 0,
          "mode": 4
        },
        {
          "attributes": {
            "NORMAL": 6,
            "POSITION": 5,
            "TANGENT": 8,
            "TEXCOORD_0": 7
          },
          "indices": 9,
          "material": 0,
          "mode": 4
        },
        {
          "attributes": {
            "NORMAL": 11,
            "POSITION": 10,
            "TANGENT": 13,
            "TEXCOORD_0": 12
          },
          "indices": 14,
          "material": 0,
          "mode": 4
        },
        {
          "attributes": {
            "NORMAL": 16,
            "POSITION": 15,
            "TANGENT": 18,
            "TEXCOORD_0": 17
          },
          "indices": 19,
          "material": 0,
          "mode": 4
        },
        {
          "attributes": {
            "NORMAL": 21,
            "POSITION": 20,
            "TANGENT": 23,
            "TEXCOORD_0": 22
          },
          "indices": 24,
          "material": 0,
          "mode": 4
        },
        {
          "attributes": {
            "NORMAL": 26,
            "POSITION": 25,
            "TANGENT": 28,
            "TEXCOORD_0": 27
          },
          "indices": 29,
          "material": 0,
          "mode": 4
        },
        {
          "attributes": {
            "NORMAL": 31,
            "POSITION": 30,
            "TANGENT": 33,
            "TEXCOORD_0": 32
          },
          "indices": 34,
          "material": 0,
          "mode": 4
        },
        {
          "attributes": {
            "NORMAL": 36,
            "POSITION": 35,
            "TANGENT": 38,
            "TEXCOORD_0": 37
          },
          "indices": 39,
          "material": 0,
          "mode": 4
        },
        {
          "attributes": {
            "NORMAL": 41,
            "POSITION": 40,
            "TANGENT": 43,
            "TEXCOORD_0": 42
          },
          "indices": 44,
          "material": 0,
          "mode": 4
        },
        {
          "attributes": {
            "NORMAL": 46,
            "POSITION": 45,
            "TANGENT": 48,
            "TEXCOORD_0": 47
          },
          "indices": 49,
          "material": 0,
          "mode": 4
        }
      ]
    }
  ],
  "nodes": [
    {
      "children": [
        1
      ],
      "name": "RootNode (gltf orientation matrix)",
      "rotation": [
        -0.70710678118654746,
        -0,
        -0,
        0.70710678118654757
      ]
    },
    {
      "children": [
        2
      ],
      "matrix": [
        0.99962776899337769,
        0,
        -0.027283353731036186,
        0,
        -0.022375460714101791,
        -0.57220011949539185,
        -0.8198087215423584,
        0,
        -0.015611538663506508,
        0.82011401653289795,
        -0.5719870924949646,
        0,
        -6.4799998256148683e-08,
        -2.2370699298335239e-05,
        6.9167999754427001e-06,
        1
      ],
      "name": "RootNode (model correction matrix)"
    },
    {
      "children": [
        3
      ],
      "matrix": [
        1,
        0,
        0,
        0,
        0,
        1,
        0,
        0,
        0,
        0,
        1,
        0,
        -14.045282363891602,
        -7.6439261436462402,
        -7.7567920684814453,
        1
      ],
      "name": "model.obj.cleaner.gles"
    },
    {
      "mesh": 0,
      "name": ""
    }
  ],
  "samplers": [
    {
      "magFilter": 9729,
      "minFilter": 9987,
      "wrapS": 10497,
      "wrapT": 10497
    }
  ],
  "scene": 0,
  "scenes": [
    {
      "name": "OSG_Scene",
      "nodes": [
        0
      ]
    }
  ],
  "textures": [
    {
      "sampler": 0,
      "source": 0
    }
  ]
}

